<svg width="179" height="91" viewBox="0 0 179 91" fill="none" xmlns="http://www.w3.org/2000/svg">
<line x1="2.99867" y1="85.083" x2="176.999" y2="9.08305" stroke="#65743A" stroke-width="10"/>
<path d="M52.2153 2.68796L50.5947 2.55727V4.18311V59.1758C50.5947 63.47 49.6629 66.4106 48.0603 68.2662C46.4941 70.0797 44.0704 71.1035 40.498 71.1035C37.3415 71.1035 34.8022 70.3193 32.7869 68.8362C30.671 67.2482 28.7981 65.1917 27.1761 62.6429L26.5751 61.6984L25.4986 62.006L25.0713 62.128L23.9834 62.4389V63.5703V81.2095V81.9203L24.5335 82.3704C25.9298 83.5128 27.3371 84.4953 28.756 85.3129C32.6214 87.5947 37.3346 88.6909 42.8174 88.6909C50.8566 88.6909 57.3858 86.1019 62.2302 80.8231C67.3125 75.3479 69.769 67.9064 69.769 58.6875V4V2.22931L68.0224 2.52041C66.1514 2.83225 64.2604 2.98828 62.3486 2.98828H57.5879C56.5136 2.98828 54.7342 2.8911 52.2153 2.68796ZM86.8114 85.4044L86.5007 87.165H88.2886H104.219H105.719V85.665V41.825L134.822 86.484L135.266 87.165H136.079H148.774H150.274V85.665V9.85938C150.274 7.95711 150.374 6.22991 150.568 4.67433L150.779 2.98828H149.08H132.6H129.554L131.407 5.39736C131.403 5.39195 131.401 5.38918 131.4 5.38949C131.396 5.39189 131.491 5.57673 131.574 6.14085C131.661 6.73069 131.71 7.55496 131.71 8.63867V50.2346L102.128 3.68375L101.686 2.98828H100.862H88.6548H87.1548V4.48828V81.1484C87.1548 82.702 87.0382 84.1192 86.8114 85.4044Z" stroke="#FCFCFC" stroke-width="3"/>
</svg>
