<?xml version="1.0" standalone="no"?>
<!DOCTYPE svg PUBLIC "-//W3C//DTD SVG 20010904//EN"
 "http://www.w3.org/TR/2001/REC-SVG-20010904/DTD/svg10.dtd">
<svg version="1.0" xmlns="http://www.w3.org/2000/svg"
 width="1088.000000pt" height="1088.000000pt" viewBox="0 0 1088.000000 1088.000000"
 preserveAspectRatio="xMidYMid meet">
<metadata>
Created by potrace 1.14, written by Peter Selinger 2001-2017
</metadata>
<g transform="translate(0.000000,1088.000000) scale(0.100000,-0.100000)"
fill="#000000" stroke="none">
<path d="M2746 7462 c-4 -3 -21 -7 -39 -8 -18 -1 -68 -5 -112 -9 -153 -14
-799 -6 -826 11 -4 2 -10 0 -13 -5 -3 -5 -6 -832 -6 -1837 -1 -1006 -5 -1849
-10 -1874 -4 -25 -11 -63 -14 -84 -15 -92 -87 -286 -107 -286 -5 0 -9 -6 -9
-14 0 -22 -119 -141 -176 -175 -59 -36 -179 -83 -188 -74 -3 4 -6 2 -6 -3 0
-5 -10 -10 -22 -10 -13 -1 -50 -5 -83 -10 -93 -13 -320 -5 -348 13 -4 2 -20 7
-35 9 -77 14 -218 77 -284 127 -78 60 -90 71 -167 148 -89 89 -117 121 -178
212 -47 69 -72 84 -74 45 -3 -74 -4 -1095 -1 -1105 2 -7 29 -31 60 -55 32 -24
59 -45 62 -48 3 -3 14 -10 25 -17 11 -7 51 -31 90 -55 38 -24 74 -45 80 -47 5
-2 37 -16 70 -31 65 -30 146 -59 184 -66 13 -3 32 -9 43 -15 10 -5 18 -8 18
-5 0 2 16 0 36 -6 50 -13 74 -18 109 -23 216 -26 458 -26 645 0 64 9 234 53
295 76 33 13 62 23 65 24 21 2 163 80 245 134 113 75 345 297 345 330 0 5 7
11 15 15 8 3 15 12 15 20 0 8 3 16 8 18 10 5 74 105 102 163 14 28 28 52 33
53 4 2 7 11 7 21 0 9 6 25 14 36 7 11 19 38 26 60 7 22 16 45 20 50 5 6 9 13
9 18 1 4 1 8 2 10 0 1 2 9 4 17 2 8 11 40 20 70 27 94 36 128 39 160 2 14 8
50 14 80 11 56 15 83 28 200 8 73 12 3728 4 3738 -7 10 -26 12 -34 4z"/>
<path d="M4089 4945 c-1 -1369 -2 -2508 -4 -2530 -1 -22 -6 -71 -9 -108 -4
-38 -3 -66 1 -64 5 3 15 2 23 -3 7 -4 24 -4 36 0 15 6 24 5 28 -3 3 -9 5 -9 5
0 1 9 8 10 26 3 15 -6 27 -6 30 0 3 6 15 6 30 0 15 -6 27 -6 30 1 4 5 10 7 15
4 12 -8 113 -10 125 -3 6 3 19 2 30 -2 11 -4 30 -4 42 1 13 5 25 4 28 -1 3 -6
15 -6 30 0 15 6 27 6 30 0 3 -5 15 -6 28 -1 12 5 34 5 49 0 16 -4 28 -4 28 1
0 6 10 6 25 0 15 -6 27 -6 30 0 3 6 15 6 30 0 15 -6 27 -6 30 0 3 6 15 6 30 0
15 -6 27 -6 30 0 4 6 13 7 24 1 10 -6 23 -6 31 -1 8 5 17 7 21 4 7 -4 82 -7
124 -5 l21 1 -1 1560 c0 858 1 1560 3 1560 2 0 127 -188 300 -455 36 -55 91
-139 123 -188 33 -48 59 -92 59 -97 0 -6 5 -10 10 -10 6 0 10 -5 10 -11 0 -6
8 -21 18 -34 22 -30 35 -49 77 -115 19 -30 39 -60 45 -67 5 -7 10 -15 10 -18
0 -3 5 -11 11 -18 14 -16 99 -148 99 -153 0 -3 5 -10 10 -17 6 -7 38 -55 72
-107 34 -52 97 -148 140 -213 43 -64 78 -120 78 -123 0 -2 5 -10 10 -17 21
-25 60 -88 60 -97 0 -6 3 -10 8 -10 4 0 16 -16 26 -35 11 -19 23 -35 28 -35 4
0 8 -5 8 -11 0 -5 18 -37 40 -69 22 -32 40 -64 40 -69 0 -6 4 -11 8 -11 5 0
15 -12 22 -27 8 -16 21 -37 30 -48 9 -11 45 -65 80 -120 34 -55 66 -102 70
-105 4 -3 10 -15 14 -27 4 -13 12 -23 17 -23 5 0 9 -4 9 -10 0 -5 16 -32 35
-59 19 -26 35 -53 35 -60 0 -6 4 -11 9 -11 5 0 13 -9 16 -20 3 -11 12 -26 18
-32 7 -7 28 -38 47 -68 19 -30 38 -56 42 -58 5 -2 8 -8 8 -13 0 -9 217 -344
251 -389 11 -14 22 -33 25 -42 6 -18 64 -43 64 -28 0 5 13 5 30 0 17 -5 30 -5
30 0 0 5 13 5 30 0 17 -5 32 -5 35 0 3 5 15 6 28 1 28 -11 36 -11 65 0 12 5
22 5 22 1 0 -8 122 -7 145 1 8 4 15 3 15 -1 0 -7 116 -5 137 3 7 2 15 0 18 -5
3 -6 15 -6 30 0 15 6 27 6 30 0 3 -5 15 -6 28 -1 12 5 33 5 47 1 14 -3 36 -4
50 0 l25 6 1 2464 c1 2264 4 2613 19 2693 4 18 1 27 -7 28 -37 4 -1016 4
-1031 1 -13 -3 -15 -8 -7 -17 12 -15 18 -40 26 -110 4 -36 8 -3047 5 -3109 -1
-15 -32 30 -166 244 -71 113 -133 207 -137 208 -5 2 -8 8 -8 14 0 9 -108 180
-129 205 -6 7 -11 14 -11 17 0 9 -104 171 -112 174 -5 2 -8 8 -8 13 0 8 -80
136 -131 211 -11 15 -19 31 -19 37 0 5 -3 11 -8 13 -9 4 -182 277 -182 288 0
5 -4 10 -8 12 -4 2 -19 21 -32 43 -13 22 -28 45 -32 50 -5 6 -52 80 -105 165
-53 85 -99 157 -102 160 -4 3 -15 22 -26 43 -11 20 -23 37 -27 37 -5 0 -8 5
-8 10 0 6 -24 47 -53 93 -93 142 -333 520 -353 555 -10 17 -22 32 -26 32 -4 0
-8 5 -8 10 0 10 -9 25 -124 202 -31 48 -56 92 -56 98 0 5 -4 10 -10 10 -5 0
-10 7 -10 15 0 8 -3 15 -8 15 -4 0 -12 9 -17 20 -19 37 -148 240 -154 241 -3
1 -180 2 -393 3 l-388 1 -1 -2490z"/>
<path d="M9318 3839 c-16 -4 -28 -4 -28 -1 0 4 -4 1 -9 -7 -5 -7 -5 -26 -1
-42 5 -15 6 -30 3 -33 -7 -7 -8 -95 -1 -102 3 -2 2 -21 -2 -42 -3 -20 -3 -49
1 -64 4 -15 3 -43 -1 -63 -4 -19 -4 -37 0 -40 4 -3 4 -21 0 -40 -4 -19 -4 -37
0 -40 4 -3 4 -21 0 -40 -4 -19 -4 -37 0 -40 4 -3 4 -21 0 -40 -4 -19 -4 -37 0
-40 4 -3 4 -21 0 -40 -4 -19 -4 -37 0 -40 4 -3 4 -21 0 -40 -4 -19 -4 -37 0
-40 4 -3 4 -21 0 -40 -4 -20 -4 -38 1 -41 5 -3 6 -10 3 -16 -6 -9 -9 -188 -4
-213 1 -5 2 -13 0 -17 -3 -16 -3 -99 1 -103 3 -2 2 -31 -1 -65 -3 -33 -3 -60
1 -60 3 0 3 -17 -1 -38 -3 -20 -3 -49 1 -63 3 -15 4 -31 0 -37 -3 -5 -4 -33
-2 -62 3 -45 6 -51 22 -47 10 3 20 0 23 -7 3 -8 5 -7 5 1 1 9 8 10 26 3 15 -6
27 -6 30 0 3 6 15 6 30 0 15 -6 27 -6 30 0 4 6 13 7 24 1 10 -6 23 -6 31 -1 8
5 21 5 31 -1 11 -6 20 -5 24 1 4 7 14 6 28 -2 12 -6 24 -10 27 -9 3 2 12 7 21
12 9 4 19 5 23 2 6 -6 117 -8 141 -3 6 1 15 1 20 0 16 -4 127 0 134 5 4 2 13
0 21 -5 8 -5 21 -5 30 0 9 5 22 5 30 0 8 -5 21 -5 31 1 11 6 20 5 24 -1 3 -6
15 -6 30 0 15 6 27 6 30 0 3 -6 15 -6 30 0 15 6 25 6 25 0 0 -5 12 -5 29 0 15
4 34 4 42 0 7 -5 21 -4 30 1 11 6 20 5 24 -1 3 -6 15 -6 30 0 15 6 27 6 30 0
3 -6 15 -6 30 0 14 5 25 6 25 2 0 -4 16 -7 35 -7 19 0 35 3 35 7 0 6 31 -2 50
-12 3 -2 15 2 26 8 12 6 24 8 28 5 8 -8 131 -7 144 1 6 3 13 3 15 -1 3 -5 20
-7 39 -6 18 1 41 2 51 2 16 1 17 46 17 801 l0 800 -28 -2 c-15 -1 -32 1 -38 4
-5 4 -16 3 -24 -2 -7 -4 -24 -4 -36 0 -14 6 -26 5 -29 0 -3 -5 -18 -5 -35 0
-17 5 -30 5 -30 0 0 -5 -13 -5 -30 0 -17 5 -30 5 -30 0 0 -5 -13 -5 -30 0 -17
5 -30 5 -30 0 0 -5 -13 -5 -30 0 -17 5 -30 5 -30 0 0 -5 -13 -5 -30 0 -17 5
-30 5 -30 0 0 -5 -13 -5 -30 0 -17 5 -30 5 -30 0 0 -5 -13 -5 -30 0 -17 5 -30
5 -30 0 0 -5 -13 -5 -30 0 -17 5 -30 5 -30 0 0 -5 -13 -5 -30 0 -17 5 -30 5
-30 0 0 -5 -13 -5 -30 0 -17 5 -30 5 -30 0 0 -5 -13 -5 -30 0 -17 5 -30 5 -30
0 0 -5 -13 -5 -30 0 -17 5 -30 5 -30 0 0 -5 -13 -5 -30 0 -17 5 -30 5 -30 0 0
-5 -13 -5 -30 0 -17 5 -30 5 -30 0 0 -5 -13 -5 -30 0 -17 5 -30 5 -30 0 0 -5
-13 -5 -30 0 -17 5 -30 5 -30 0 0 -5 -13 -5 -30 0 -19 5 -30 5 -30 -1 0 -6 -5
-7 -10 -4 -13 8 -138 10 -146 2 -3 -3 -18 -2 -33 3 -16 4 -34 4 -41 0 -7 -5
-23 -5 -34 0 -12 4 -30 4 -41 0 -11 -4 -27 -4 -35 0 -8 4 -27 4 -42 -1z"/>
</g>
</svg>
